<svg width="200" height="200" viewBox="0 0 200 200" fill="none" xmlns="http://www.w3.org/2000/svg">
<rect width="200" height="200" rx="100" fill="white"/>
<path d="M124.399 139.047C124.146 139.047 123.899 138.969 123.691 138.824C123.484 138.678 123.326 138.472 123.24 138.234C123.154 137.996 123.143 137.737 123.209 137.493C123.275 137.248 123.415 137.03 123.61 136.868C129.891 131.625 134.635 124.779 137.338 117.056C137.446 116.748 137.673 116.495 137.967 116.354C138.262 116.212 138.601 116.193 138.909 116.302C139.218 116.41 139.47 116.636 139.612 116.931C139.754 117.225 139.772 117.564 139.664 117.872C136.813 126.015 131.81 133.233 125.187 138.761C124.966 138.946 124.687 139.047 124.399 139.047V139.047Z" fill="#016673"/>
<path d="M143.798 119.767C143.566 119.767 143.338 119.702 143.142 119.578C142.945 119.454 142.787 119.278 142.687 119.068L140.048 113.578C140.02 113.519 139.97 113.474 139.908 113.452C139.846 113.431 139.779 113.434 139.72 113.462L134.23 116.1C133.936 116.24 133.598 116.258 133.291 116.149C132.983 116.041 132.732 115.815 132.59 115.521C132.449 115.228 132.43 114.89 132.537 114.582C132.644 114.275 132.869 114.022 133.162 113.879L138.652 111.241C139.3 110.93 140.046 110.889 140.724 111.127C141.403 111.365 141.959 111.863 142.271 112.511L144.909 118.001C144.999 118.188 145.041 118.396 145.029 118.604C145.017 118.812 144.953 119.014 144.842 119.19C144.731 119.367 144.577 119.512 144.395 119.613C144.213 119.714 144.008 119.767 143.799 119.767H143.798Z" fill="#016673"/>
<path d="M59.337 84.0396C59.1279 84.0395 58.9223 83.9862 58.7395 83.8846C58.5567 83.7831 58.4027 83.6367 58.2921 83.4593C58.1814 83.2819 58.1178 83.0792 58.1071 82.8704C58.0964 82.6616 58.139 82.4535 58.2309 82.2657C62.0168 74.5136 67.8315 67.9316 75.0574 63.2185C75.3313 63.0402 75.6649 62.978 75.9846 63.0456C76.3044 63.1133 76.5842 63.3051 76.7625 63.579C76.9408 63.853 77.003 64.1865 76.9354 64.5063C76.8678 64.826 76.6759 65.1058 76.402 65.2841C69.5492 69.7542 64.0349 75.9967 60.4447 83.3487C60.3433 83.5561 60.1857 83.7308 59.9898 83.8529C59.794 83.9751 59.5678 84.0398 59.337 84.0396V84.0396Z" fill="#016673"/>
<path d="M57.5809 89.1166C57.0155 89.1163 56.4643 88.9397 56.0041 88.6113C55.5438 88.2829 55.1975 87.8191 55.0133 87.2846L53.035 81.5231C52.9825 81.37 52.9607 81.2081 52.9708 81.0466C52.9809 80.885 53.0226 80.7271 53.0938 80.5817C53.1649 80.4363 53.264 80.3064 53.3853 80.1993C53.5066 80.0922 53.6479 80.01 53.801 79.9575C53.9541 79.905 54.116 79.8832 54.2775 79.8933C54.4391 79.9033 54.597 79.9451 54.7424 80.0163C54.8878 80.0874 55.0177 80.1864 55.1248 80.3078C55.2319 80.4291 55.3141 80.5704 55.3666 80.7235L57.3429 86.4849C57.3534 86.5157 57.3698 86.5441 57.3913 86.5684C57.4128 86.5928 57.4389 86.6127 57.4681 86.6269C57.4973 86.6412 57.529 86.6495 57.5614 86.6515C57.5938 86.6534 57.6263 86.649 57.657 86.6383L63.4185 84.6625C63.572 84.6081 63.7348 84.5847 63.8974 84.5936C64.0601 84.6025 64.2193 84.6436 64.366 84.7145C64.5126 84.7853 64.6438 84.8845 64.7519 85.0064C64.86 85.1282 64.9428 85.2703 64.9956 85.4244C65.0485 85.5785 65.0702 85.7415 65.0597 85.904C65.0491 86.0665 65.0064 86.2254 64.9341 86.3713C64.8618 86.5172 64.7612 86.6474 64.6383 86.7542C64.5153 86.8611 64.3724 86.9425 64.2178 86.9938L58.4572 88.9698C58.1752 89.0667 57.8791 89.1163 57.5809 89.1166V89.1166Z" fill="#016673"/>
<path d="M167.308 46.2784C166.958 44.7065 165.378 43.162 163.589 43.3646C157.543 44.0602 146.888 44.8078 145.118 44.3724C144.133 44.1314 143.191 43.9452 142.276 43.7645C141.89 43.6878 141.509 43.6139 141.134 43.5344C141.057 43.518 140.981 43.5016 140.904 43.4879C140.921 43.0987 140.892 42.7089 140.816 42.3268C139.902 37.7371 134.636 34.6837 131.421 36.7841C130.829 34.0621 128.093 32 124.706 32C121.318 32 118.574 34.0621 117.98 36.7841C113.864 34.1004 106.657 39.6129 108.543 46.1552C107.569 46.1226 106.62 46.4624 105.887 47.1054C105.466 47.5106 105.136 48.0006 104.918 48.5431C104.7 49.0855 104.6 49.6679 104.625 50.2519C104.638 51.361 105.203 52.4482 106.21 53.3163C107.093 54.0618 108.162 54.5531 109.302 54.7375C109.272 54.9497 109.26 55.1641 109.266 55.3783C109.279 55.9838 109.427 56.5789 109.699 57.12C109.235 57.305 108.806 57.569 108.431 57.9004C108.037 58.2558 107.726 58.6939 107.52 59.1834C107.315 59.6729 107.22 60.2017 107.243 60.732C107.258 61.3986 107.436 62.0513 107.763 62.6325C107.361 62.8092 106.989 63.0486 106.662 63.3418C106.268 63.6949 105.957 64.131 105.751 64.6187C105.546 65.1065 105.451 65.6337 105.474 66.1624C105.475 66.9219 105.703 67.6637 106.128 68.2933C106.553 68.9229 107.155 69.4118 107.859 69.6978C103.891 74.3778 98.9999 80.9912 98.9999 89.8666C98.9999 101.56 110.926 107.585 124.665 107.593H124.684C138.431 107.593 150.365 101.565 150.365 89.8666C150.365 81.1227 145.767 74.7749 141.835 70.1195C143.544 69.5389 144.913 68.5613 146.241 67.6111C146.931 67.1181 147.583 66.6526 148.27 66.25C149.41 65.5819 159.854 63.224 165.81 62.0958C167.221 61.8274 168.196 60.6307 168.36 58.9685C168.664 55.8548 168.204 50.2793 167.308 46.2784ZM107.818 51.4486C107.62 51.3024 107.454 51.118 107.329 50.9063C107.203 50.6946 107.122 50.46 107.089 50.2163C107.071 49.983 107.102 49.7484 107.18 49.5277C107.257 49.307 107.381 49.105 107.541 48.9347C107.831 48.6718 108.621 48.4418 109.609 48.4993C109.633 48.5404 109.658 48.5814 109.685 48.6225C110.357 49.6667 110.926 50.7737 111.383 51.9278C111.223 52.0086 111.069 52.0994 110.92 52.1998C110.662 52.3185 110.38 52.378 110.096 52.3739C109.247 52.3635 108.433 52.033 107.818 51.4486V51.4486ZM110.28 67.5755C109.954 67.6254 109.623 67.6217 109.299 67.5645C109.2 67.5466 109.102 67.5228 109.006 67.4933C108.694 67.4189 108.417 67.2391 108.222 66.9841C108.027 66.7292 107.926 66.4148 107.936 66.094C107.924 65.9208 107.952 65.7472 108.018 65.5867C108.084 65.4262 108.186 65.283 108.316 65.1683C108.73 64.7932 109.436 64.5905 110.277 64.5905C110.528 64.5933 110.778 64.6098 111.027 64.6398C111.4 64.6946 111.991 65.4367 111.994 66.2227C111.997 66.9566 111.419 67.4112 110.28 67.5755ZM112.065 62.1341C112.06 62.1341 112.054 62.1369 112.049 62.1369C111.742 62.1807 111.43 62.1807 111.123 62.1369C110.496 62.0465 109.737 61.7151 109.705 60.6553C109.693 60.4822 109.721 60.3086 109.787 60.1481C109.853 59.9876 109.955 59.8444 110.085 59.7297C110.499 59.3546 111.203 59.1519 112.04 59.1519C112.157 59.1519 112.44 59.1763 112.633 59.1941C112.831 59.209 113.018 59.2899 113.164 59.4239C113.528 59.7849 113.739 60.2717 113.755 60.7841C113.76 61.518 113.185 61.9753 112.065 62.1341V62.1341ZM114.056 56.7749C113.55 56.8371 113.037 56.7799 112.558 56.6079C112.303 56.5002 112.087 56.3172 111.938 56.0832C111.79 55.8493 111.717 55.5756 111.728 55.2989C111.716 55.1436 111.738 54.9876 111.793 54.8418C111.848 54.6961 111.934 54.5642 112.046 54.4555C112.057 54.4472 112.128 54.3733 112.158 54.3487C112.611 54.0137 113.156 53.8254 113.719 53.8092C114.088 53.7901 114.457 53.8038 114.823 53.8503C115.195 53.905 115.784 54.6471 115.787 55.4303C115.789 56.1588 115.223 56.6911 114.056 56.7749V56.7749ZM125.11 78.9598C128.133 78.9598 130.593 81.1166 130.593 83.768C130.593 86.041 128.773 87.9467 126.342 88.4377V90.3634C126.342 90.6902 126.212 91.0036 125.981 91.2347C125.75 91.4658 125.436 91.5957 125.11 91.5957C124.783 91.5957 124.469 91.4658 124.238 91.2347C124.007 91.0036 123.877 90.6902 123.877 90.3634V88.4371C121.453 87.9442 119.638 86.0407 119.638 83.768C119.638 83.4412 119.768 83.1278 119.999 82.8967C120.23 82.6656 120.544 82.5357 120.87 82.5357C121.197 82.5357 121.511 82.6656 121.742 82.8967C121.973 83.1278 122.103 83.4412 122.103 83.768C122.103 85.0537 123.452 86.0998 125.11 86.0998C126.774 86.0998 128.128 85.0537 128.128 83.768C128.128 82.4757 126.774 81.4244 125.11 81.4244C122.093 81.4244 119.638 79.2728 119.638 76.6283C119.638 74.3499 121.453 72.4406 123.877 71.9477V70.033C123.877 69.7061 124.007 69.3927 124.238 69.1616C124.469 68.9305 124.783 68.8006 125.11 68.8006C125.436 68.8006 125.75 68.9305 125.981 69.1616C126.212 69.3927 126.342 69.7061 126.342 70.033V71.9469C128.773 72.4398 130.593 74.3488 130.593 76.6297C130.593 76.9565 130.463 77.2699 130.232 77.501C130 77.7321 129.687 77.862 129.36 77.862C129.033 77.862 128.72 77.7321 128.489 77.501C128.258 77.2699 128.128 76.9565 128.128 76.6297C128.128 75.3374 126.774 74.2861 125.11 74.2861C123.452 74.2861 122.103 75.3374 122.103 76.6297C122.103 77.914 123.452 78.9598 125.11 78.9598V78.9598ZM165.906 58.7275C165.887 58.9274 165.788 59.5901 165.353 59.675C163.266 60.0693 148.999 62.9557 147.022 64.125C146.244 64.5796 145.513 65.1026 144.809 65.6065C143.456 66.5732 142.18 67.4851 140.638 67.9096C140.461 67.9585 140.296 68.0464 140.156 68.167C139.937 67.915 139.724 67.6686 139.518 67.4276C139.505 67.4112 139.488 67.392 139.472 67.3756C137.23 64.8175 135.917 61.5773 135.747 58.18C135.864 58.2425 135.984 58.3028 136.106 58.3611C136.13 58.3726 137.543 58.8855 137.768 58.946C138.34 59.0927 138.929 59.162 139.52 59.1522C140.197 59.0755 140.753 58.6007 140.753 57.9199C140.753 57.5931 140.623 57.2796 140.392 57.0485C140.16 56.8174 139.847 56.6876 139.52 56.6876C138.736 56.6103 137.964 56.4361 137.222 56.1689C136.914 56.0296 136.619 55.8628 136.341 55.6705H136.339C136.187 55.5697 136.033 55.461 135.878 55.3444C135.762 55.2581 135.645 55.1658 135.526 55.0705C135.509 55.0568 135.492 55.0431 135.476 55.0297C135.356 54.9322 135.236 54.8297 135.113 54.7222L135.108 54.7175C134.495 54.1644 133.912 53.5457 133.345 52.9463C131.707 51.2101 130.015 49.4109 127.695 49.578C125.683 49.7286 122.533 50.5118 121.619 50.75C120.72 51.0172 119.753 50.9371 118.91 50.5255C118.24 50.1667 117.947 49.6519 117.957 49.3288C117.971 48.9235 118.467 48.6414 118.76 48.51C119.809 48.0389 120.734 47.5926 121.548 47.1982C124.308 45.8619 126.132 44.9773 129.612 44.6679C132.723 44.3913 135.988 44.9773 140.205 45.8619C140.347 45.8892 140.49 45.9194 140.632 45.9495C141.015 46.0289 141.407 46.1083 141.801 46.185C142.686 46.3603 143.603 46.541 144.532 46.7683C147.048 47.3844 159.221 46.352 163.873 45.8153C164.213 45.7715 164.783 46.2672 164.906 46.8203C165.736 50.5394 166.186 55.8822 165.906 58.7275Z" fill="#016673"/>
<path d="M95.8436 107.708C94.1827 106.467 90.6544 104.212 87.1013 104.359C84.6125 104.462 82.4924 106.078 81.3461 107.184C81.2971 107.231 81.2646 107.294 81.2535 107.361C81.2424 107.429 81.2532 107.498 81.2843 107.559C81.3154 107.62 81.3652 107.67 81.4264 107.7C81.4877 107.731 81.5571 107.741 81.6246 107.73C87.3505 106.744 89.4018 107.062 90.1582 107.633C90.1929 107.66 90.2185 107.696 90.2315 107.738C90.2445 107.78 90.2442 107.825 90.2306 107.866C90.217 107.908 90.1909 107.944 90.1558 107.97C90.1207 107.996 90.0784 108.011 90.0347 108.012C88.6159 108.052 85.1652 107.944 81.4019 109.39C81.3297 109.417 81.2654 109.462 81.2145 109.52C81.1637 109.578 81.128 109.647 81.1107 109.722C81.0933 109.798 81.0948 109.876 81.115 109.95C81.1351 110.025 81.1734 110.093 81.2264 110.149C82.4007 111.374 84.3647 113.377 87.4701 113.249C91.0112 113.102 94.3344 110.672 95.8956 109.346C96.0154 109.244 96.1107 109.116 96.1744 108.972C96.2381 108.829 96.2686 108.672 96.2636 108.515C96.2586 108.357 96.2183 108.203 96.1455 108.064C96.0728 107.924 95.9696 107.803 95.8436 107.708Z" fill="#016673"/>
<path d="M95.0674 153.391C95.015 152.755 94.8196 152.14 94.4957 151.591C94.1718 151.042 93.7278 150.573 93.197 150.219C92.1437 149.554 90.9266 149.194 89.6808 149.179C91.5945 146.564 92.9269 143.571 93.5886 140.399C95.8424 129.717 90.1108 119.705 80.0496 115.394C80.3968 113.852 80.6112 112.282 80.6904 110.703C80.7932 108.979 80.7207 107.248 80.4741 105.539C80.3455 104.658 80.1309 103.792 79.8333 102.953C79.5209 102.028 78.9935 101.19 78.2943 100.508C78.1318 100.359 77.9175 100.279 77.6971 100.286C77.4767 100.292 77.2676 100.385 77.1144 100.544C76.9612 100.702 76.876 100.914 76.8769 101.135C76.8779 101.355 76.9649 101.567 77.1195 101.724L77.1551 101.762C77.6154 102.273 77.9534 102.882 78.1437 103.542C78.37 104.277 78.525 105.032 78.6065 105.796C78.769 107.377 78.7727 108.971 78.6174 110.553C78.4959 111.915 78.266 113.266 77.9301 114.592C77.9246 114.617 76.7065 118.911 76.4327 119.208L76.988 119.215C77.1523 119.204 77.3194 119.201 77.4837 119.184C77.6507 119.173 77.8151 119.154 77.9766 119.135L78.434 119.08L78.5818 119.064C78.8065 119.036 79.0338 119.089 79.2227 119.214C79.4116 119.339 79.5497 119.527 79.6121 119.745C79.6745 119.963 79.6571 120.195 79.5632 120.401C79.4692 120.607 79.3047 120.773 79.0994 120.869C78.8972 120.967 78.6897 121.054 78.4778 121.129C78.2779 121.205 78.0752 121.26 77.8726 121.318C77.4652 121.424 77.0506 121.501 76.632 121.548C75.7791 121.639 74.9172 121.598 74.077 121.424C73.6502 121.337 73.2309 121.216 72.8228 121.063C72.4201 120.898 72.0317 120.701 71.6617 120.471C70.9276 120.025 70.2846 119.443 69.7667 118.757C69.6264 118.58 69.5533 118.359 69.5605 118.133C69.5676 117.907 69.6545 117.691 69.8058 117.523C69.957 117.355 70.1628 117.246 70.3867 117.215C70.6107 117.185 70.8382 117.234 71.0291 117.355L71.1277 117.418C71.6585 117.792 72.218 118.123 72.8009 118.409C73.0841 118.546 73.3749 118.667 73.6718 118.771C73.7046 118.782 73.9237 118.873 73.9566 118.884C74.2618 118.394 74.5415 117.888 74.7945 117.369C75.1208 116.679 75.3892 115.964 75.5969 115.23C75.7147 114.836 75.816 114.436 75.9091 114.031C75.6462 113.968 75.3833 113.899 75.1149 113.844C61.9703 111.07 50.0908 118.3 47.481 130.664C46.5192 135.11 46.9299 139.743 48.6586 143.951C48.0534 144.209 47.4838 144.466 46.9525 144.718C43.6444 146.284 34.0653 152.78 31.6061 156.625C31.1298 157.32 30.9234 158.165 31.0256 159.002C31.3241 161.677 38.0278 168.052 40.3227 168.797C40.7131 168.927 41.1215 168.996 41.5331 169C42.2379 168.991 42.9241 168.772 43.5048 168.373C43.8882 168.126 44.3619 167.748 44.9096 167.31C46.1693 166.3 47.8973 164.914 49.5404 164.336C52.6348 163.249 57.3806 163.597 61.1953 163.876C62.9534 164.005 64.4732 164.114 65.6919 164.087C71.5029 163.947 90.7105 159.111 93.9939 156.146C94.372 155.799 94.6655 155.371 94.8516 154.893C95.0378 154.415 95.1116 153.901 95.0674 153.391V153.391ZM63.9748 126.792C64.035 126.642 64.1316 126.511 64.2557 126.408C64.3799 126.305 64.5277 126.235 64.6857 126.204C64.8437 126.173 65.007 126.182 65.1607 126.23C65.3144 126.278 65.4537 126.364 65.5659 126.48C65.6876 126.632 65.7472 126.825 65.7329 127.019C65.724 127.221 65.6477 127.415 65.5162 127.569C65.3847 127.722 65.2056 127.828 65.0072 127.868C64.8608 127.902 64.7081 127.897 64.5641 127.854C64.4201 127.811 64.2897 127.731 64.1857 127.623C64.0817 127.514 64.0076 127.381 63.9706 127.235C63.9336 127.09 63.9351 126.937 63.9748 126.792V126.792ZM59.4372 127.641C59.4974 127.491 59.5939 127.359 59.7181 127.257C59.8422 127.154 59.99 127.084 60.1481 127.053C60.3061 127.022 60.4694 127.031 60.6231 127.079C60.7768 127.127 60.9161 127.213 61.0282 127.329C61.1499 127.481 61.2096 127.674 61.1953 127.868C61.1848 128.07 61.1077 128.263 60.9759 128.417C60.8441 128.57 60.6651 128.676 60.4669 128.717C60.3206 128.75 60.1681 128.745 60.0244 128.702C59.8807 128.659 59.7506 128.579 59.6469 128.471C59.5432 128.362 59.4693 128.229 59.4326 128.083C59.3958 127.938 59.3974 127.785 59.4372 127.641V127.641ZM60.2971 134.139C60.2862 134.341 60.2089 134.534 60.0772 134.687C59.9454 134.841 59.7666 134.947 59.5686 134.988C59.4221 135.022 59.2693 135.016 59.1253 134.973C58.9814 134.93 58.8511 134.85 58.7473 134.741C58.6435 134.632 58.5697 134.499 58.5332 134.353C58.4967 134.207 58.4987 134.054 58.539 133.909C58.5991 133.76 58.6955 133.628 58.8196 133.526C58.9436 133.424 59.0912 133.354 59.2491 133.323C59.4069 133.292 59.5699 133.302 59.7233 133.35C59.8767 133.398 60.0156 133.484 60.1273 133.6C60.2497 133.752 60.3104 133.944 60.2971 134.139V134.139ZM57.638 123.382C57.6984 123.233 57.7951 123.101 57.9194 122.999C58.0437 122.897 58.1915 122.827 58.3496 122.796C58.5076 122.765 58.6709 122.775 58.8245 122.823C58.9781 122.871 59.1171 122.957 59.2291 123.073C59.3507 123.225 59.4104 123.418 59.3961 123.613C59.3863 123.814 59.3097 124.007 59.1784 124.161C59.047 124.315 58.8683 124.42 58.6704 124.461C58.5237 124.495 58.3708 124.49 58.2267 124.447C58.0826 124.403 57.9521 124.324 57.8481 124.215C57.744 124.106 57.67 123.972 57.6332 123.826C57.5964 123.681 57.598 123.528 57.638 123.382V123.382ZM54.1766 129.336C54.237 129.187 54.3337 129.055 54.458 128.952C54.5822 128.85 54.7301 128.78 54.8882 128.75C55.0462 128.719 55.2095 128.728 55.363 128.776C55.5166 128.825 55.6557 128.911 55.7676 129.026C55.8901 129.179 55.9507 129.371 55.9374 129.566C55.9266 129.768 55.8492 129.961 55.7175 130.114C55.5858 130.268 55.407 130.373 55.209 130.415C55.0623 130.448 54.9094 130.443 54.7653 130.4C54.6211 130.357 54.4907 130.277 54.3867 130.168C54.2826 130.06 54.2086 129.926 54.1718 129.78C54.1349 129.634 54.1366 129.481 54.1766 129.336V129.336ZM92.3426 154.316C89.7356 156.671 71.1907 161.488 65.6316 161.622C64.5335 161.65 62.9999 161.538 61.376 161.417C57.334 161.121 52.3007 160.754 48.7216 162.011C46.6841 162.729 44.7672 164.265 43.3679 165.385C42.8749 165.779 42.4477 166.122 42.1711 166.3C42.0201 166.421 41.839 166.499 41.647 166.526C41.4551 166.552 41.2595 166.526 41.0812 166.45C39.3313 165.886 33.6463 160.111 33.4765 158.728C33.4568 158.592 33.4649 158.453 33.5002 158.319C33.5355 158.186 33.5973 158.062 33.6819 157.953C35.7248 154.76 44.6549 148.533 48.0068 146.947C51.0191 145.52 55.324 143.85 60.79 143.85C62.6583 143.853 64.5217 144.044 66.3518 144.419C70.7197 145.307 76.6485 146.985 78.0999 147.747C79.0008 148.223 79.4554 149.015 79.3157 149.869C79.2511 150.256 79.0622 150.612 78.7776 150.882C78.4931 151.152 78.1283 151.322 77.7384 151.367C76.4623 151.564 74.8411 151.331 73.1241 151.085C70.1912 150.66 66.8639 150.184 64.0625 151.745C63.8244 151.878 63.6372 152.087 63.5304 152.338C63.4235 152.589 63.4028 152.869 63.4717 153.133C63.5405 153.397 63.695 153.631 63.9109 153.798C64.1268 153.965 64.392 154.056 64.6649 154.056C64.8752 154.056 65.0817 154.001 65.2646 153.897C67.3377 152.742 70.1008 153.139 72.7735 153.525C74.6576 153.796 76.4376 154.051 78.0615 153.81H78.0725C79.5983 153.58 81.1077 153.252 82.5909 152.827C85.9949 151.942 89.8534 150.942 91.8223 152.265C92.0403 152.411 92.2236 152.604 92.3594 152.828C92.4952 153.053 92.5801 153.305 92.6083 153.566C92.6267 153.703 92.6123 153.843 92.5661 153.973C92.5199 154.104 92.4433 154.221 92.3426 154.316V154.316Z" fill="#016673"/>
</svg>
