<svg xmlns="http://www.w3.org/2000/svg" width="200" height="200" fill="none" xmlns:v="https://vecta.io/nano"><rect width="200" height="200" rx="100" fill="#3d6bff"/><path d="M122.932 135.489c-.233 0-.46-.072-.651-.206a1.13 1.13 0 0 1-.415-.542c-.08-.219-.09-.457-.029-.682s.19-.426.369-.575a41.69 41.69 0 0 0 12.631-18.228c.099-.283.308-.516.579-.646a1.13 1.13 0 0 1 .866-.048c.284.099.516.308.647.579a1.13 1.13 0 0 1 .048.866 43.96 43.96 0 0 1-13.32 19.219 1.13 1.13 0 0 1-.725.263zm17.848-17.739c-.213 0-.423-.06-.604-.174a1.13 1.13 0 0 1-.418-.469l-2.428-5.052c-.026-.054-.072-.095-.129-.115s-.119-.017-.173.009l-5.051 2.427a1.13 1.13 0 1 1-.982-2.043l5.051-2.428c.596-.286 1.282-.323 1.906-.104a2.5 2.5 0 0 1 1.423 1.273l2.427 5.051c.084.173.121.364.111.555s-.07.377-.172.539a1.13 1.13 0 0 1-.412.389c-.167.093-.356.142-.548.142h-.001zM63.071 84.879a1.13 1.13 0 0 1-.55-.143c-.168-.094-.31-.228-.412-.391s-.16-.35-.17-.542.029-.384.114-.556a43.95 43.95 0 0 1 15.481-17.524c.252-.164.559-.221.853-.159s.552.239.716.491.221.559.159.853-.239.552-.491.716a41.68 41.68 0 0 0-14.682 16.62 1.13 1.13 0 0 1-.418.464 1.14 1.14 0 0 1-.601.172zm-1.616 4.671a2.5 2.5 0 0 1-2.362-1.686l-1.82-5.301c-.048-.141-.068-.29-.059-.439s.048-.294.113-.428a1.14 1.14 0 0 1 .268-.352 1.13 1.13 0 0 1 .382-.222c.141-.048.29-.068.439-.059s.294.048.428.113a1.14 1.14 0 0 1 .352.268 1.12 1.12 0 0 1 .222.382l1.818 5.301c.01.028.025.054.044.077a.21.21 0 0 0 .071.054c.027.013.056.021.086.023s.06-.002.088-.012l5.301-1.818a1.12 1.12 0 0 1 .441-.063 1.15 1.15 0 0 1 .431.111c.135.065.256.156.355.269a1.14 1.14 0 0 1 .224.385 1.13 1.13 0 0 1-.057.871 1.14 1.14 0 0 1-.272.352c-.113.098-.245.173-.387.22l-5.3 1.818a2.49 2.49 0 0 1-.806.135zm100.956-39.413c-.323-1.446-1.777-2.867-3.422-2.681-5.563.64-15.367 1.328-16.994.927-.907-.222-1.774-.393-2.616-.559l-1.05-.212-.212-.043a4.5 4.5 0 0 0-.08-1.068c-.842-4.223-5.687-7.032-8.645-5.099-.544-2.504-3.061-4.402-6.178-4.402s-5.641 1.897-6.188 4.402c-3.787-2.469-10.418 2.603-8.682 8.622a3.53 3.53 0 0 0-2.444.874 3.79 3.79 0 0 0-.892 1.323 3.81 3.81 0 0 0-.27 1.572c.013 1.02.532 2.021 1.459 2.819a5.86 5.86 0 0 0 2.845 1.308 3.42 3.42 0 0 0-.033.59 3.75 3.75 0 0 0 .398 1.602 3.98 3.98 0 0 0-1.166.718c-.363.327-.649.73-.838 1.18s-.277.937-.256 1.425a3.74 3.74 0 0 0 .479 1.749 3.82 3.82 0 0 0-1.013.653 3.29 3.29 0 0 0-.838 1.175 3.31 3.31 0 0 0-.256 1.42 3.53 3.53 0 0 0 .602 1.96c.391.579.946 1.029 1.593 1.292-3.651 4.306-8.151 10.391-8.151 18.556 0 10.759 10.973 16.302 23.613 16.309h.018c12.648 0 23.628-5.545 23.628-16.309 0-8.045-4.23-13.885-7.848-18.168 1.572-.534 2.832-1.434 4.054-2.308.635-.453 1.234-.882 1.867-1.252 1.048-.615 10.657-2.784 16.137-3.822 1.298-.247 2.195-1.348 2.346-2.877.28-2.865-.144-7.994-.967-11.675zm-54.735 4.757a1.69 1.69 0 0 1-.67-1.134c-.017-.215.011-.431.083-.634a1.55 1.55 0 0 1 .333-.546c.267-.242.993-.454 1.902-.401.023.038.045.076.071.113a17.71 17.71 0 0 1 1.562 3.041 3.86 3.86 0 0 0-.426.25 1.76 1.76 0 0 1-.759.16 3.1 3.1 0 0 1-2.096-.851zm2.265 14.837a2.76 2.76 0 0 1-.902-.01 2.07 2.07 0 0 1-.269-.066c-.288-.068-.542-.234-.722-.468a1.28 1.28 0 0 1-.263-.819 1.05 1.05 0 0 1 .075-.467 1.04 1.04 0 0 1 .275-.385c.38-.345 1.03-.532 1.804-.532.231.003.461.018.69.045.343.05.887.733.889 1.456.003.675-.529 1.093-1.577 1.245zm1.643-5.006a3 3 0 0 1-.867.002c-.577-.083-1.275-.388-1.305-1.363a1.04 1.04 0 0 1 .076-.467 1.05 1.05 0 0 1 .274-.385c.381-.345 1.028-.532 1.799-.532a8.76 8.76 0 0 1 .546.039.81.81 0 0 1 .488.211c.335.332.529.78.544 1.252.005.675-.525 1.096-1.555 1.242zm1.832-4.931a2.99 2.99 0 0 1-1.378-.154c-.235-.099-.434-.268-.571-.483a1.26 1.26 0 0 1-.193-.722c-.011-.143.009-.286.06-.421a.98.98 0 0 1 .232-.355c.01-.008.076-.075.104-.098a2.54 2.54 0 0 1 1.436-.496c.339-.017.679-.005 1.015.038.343.05.885.733.887 1.454.003.67-.519 1.16-1.592 1.237zm10.17 20.411c2.781 0 5.044 1.984 5.044 4.424 0 2.091-1.674 3.845-3.911 4.296v1.772a1.13 1.13 0 0 1-1.935.802 1.13 1.13 0 0 1-.332-.802v-1.772c-2.231-.453-3.9-2.205-3.9-4.296a1.13 1.13 0 0 1 1.133-1.134c.301 0 .589.12.802.332a1.13 1.13 0 0 1 .332.802c0 1.183 1.241 2.145 2.767 2.145 1.531 0 2.777-.963 2.777-2.145 0-1.189-1.246-2.156-2.777-2.156-2.776 0-5.034-1.98-5.034-4.413 0-2.096 1.669-3.853 3.9-4.306v-1.762a1.13 1.13 0 0 1 1.134-1.134 1.13 1.13 0 0 1 1.133 1.134v1.761c2.237.454 3.911 2.21 3.911 4.308a1.13 1.13 0 0 1-.332.802c-.213.213-.501.332-.802.332a1.13 1.13 0 0 1-1.133-1.134c0-1.189-1.246-2.156-2.777-2.156-1.526 0-2.767.967-2.767 2.156 0 1.182 1.241 2.144 2.767 2.144zm37.535-18.615c-.018.184-.109.794-.509.872-1.92.363-15.047 3.018-16.866 4.094-.716.418-1.388.9-2.036 1.363-1.245.889-2.419 1.728-3.837 2.119-.164.045-.315.126-.444.237l-.587-.68c-.012-.015-.027-.033-.043-.048a13.89 13.89 0 0 1-3.426-8.46 8.77 8.77 0 0 0 .33.166 46.03 46.03 0 0 0 1.529.538 6.09 6.09 0 0 0 1.612.19c.622-.071 1.134-.507 1.134-1.134 0-.301-.12-.589-.332-.802a1.13 1.13 0 0 0-.802-.332 8.77 8.77 0 0 1-2.114-.477 5.16 5.16 0 0 1-.811-.459h-.001a8.92 8.92 0 0 1-.425-.3 10.67 10.67 0 0 1-.324-.252c-.015-.013-.031-.025-.046-.038a11.13 11.13 0 0 1-.333-.283l-.005-.004c-.565-.509-1.101-1.078-1.622-1.63-1.507-1.597-3.064-3.253-5.198-3.099-1.852.139-4.75.859-5.591 1.078a3.44 3.44 0 0 1-2.492-.207c-.617-.33-.887-.804-.877-1.101.013-.373.469-.632.739-.753.964-.433 1.816-.844 2.564-1.207 2.54-1.23 4.218-2.043 7.42-2.328 2.863-.255 5.866.285 9.746 1.099l.393.081 1.076.217 2.512.537c2.315.567 13.515-.383 17.795-.877.313-.04.837.416.95.925.764 3.422 1.177 8.337.921 10.955zm-64.462 45.065c-1.528-1.142-4.774-3.217-8.043-3.081-2.29.095-4.24 1.581-5.295 2.599-.045.044-.075.101-.085.163a.3.3 0 0 0 .028.182.29.29 0 0 0 .131.13c.057.028.12.038.182.027 5.268-.907 7.156-.615 7.851-.089.032.025.056.058.067.097s.012.079-.001.118-.037.071-.069.095-.071.038-.112.039c-1.305.036-4.48-.063-7.943 1.268a.42.42 0 0 0-.172.119.44.44 0 0 0-.096.186.43.43 0 0 0 .004.21.45.45 0 0 0 .102.183c1.08 1.127 2.887 2.97 5.745 2.852 3.258-.135 6.315-2.37 7.752-3.591a.96.96 0 0 0 .257-.344.95.95 0 0 0 .082-.421.97.97 0 0 0-.109-.415c-.067-.128-.162-.24-.278-.327zm-.714 42.031c-.048-.585-.228-1.151-.526-1.656a3.88 3.88 0 0 0-1.195-1.262 6.2 6.2 0 0 0-3.235-.957 20.91 20.91 0 0 0 3.595-8.078c2.074-9.829-3.2-19.04-12.456-23.006.319-1.419.517-2.863.589-4.316a23.5 23.5 0 0 0-.199-4.752 12.53 12.53 0 0 0-.59-2.378 5.69 5.69 0 0 0-1.416-2.25.78.78 0 0 0-.549-.204c-.203.006-.395.091-.536.237a.78.78 0 0 0 .005 1.086l.033.035a4.17 4.17 0 0 1 .91 1.638 11.01 11.01 0 0 1 .426 2.073 21.85 21.85 0 0 1 .01 4.377 23.7 23.7 0 0 1-.632 3.716c-.005.023-1.126 3.974-1.378 4.247l.511.006c.151-.01.305-.013.456-.028a8.19 8.19 0 0 0 .454-.045l.421-.05.136-.016a.88.88 0 0 1 .59.139.87.87 0 0 1 .358.488.88.88 0 0 1-.045.604.87.87 0 0 1-.427.43 5.61 5.61 0 0 1-.572.239c-.184.071-.37.121-.557.174a8.04 8.04 0 0 1-1.141.212c-.785.084-1.578.046-2.351-.114a7.84 7.84 0 0 1-1.154-.332c-.371-.152-.728-.334-1.068-.545-.675-.411-1.267-.946-1.743-1.577a.88.88 0 0 1 .036-1.135c.139-.155.329-.255.534-.283a.88.88 0 0 1 .591.128l.091.058c.488.344 1.003.649 1.54.912a7.71 7.71 0 0 0 .801.333c.03.01.232.094.262.104a15.48 15.48 0 0 0 .771-1.394c.3-.634.547-1.293.738-1.968a17.66 17.66 0 0 0 .287-1.103l-.731-.172c-12.094-2.552-23.023 4.099-25.425 15.475a20.67 20.67 0 0 0 1.083 12.225 44.06 44.06 0 0 0-1.57.705c-3.044 1.442-11.857 7.418-14.119 10.955a3.19 3.19 0 0 0-.534 2.187c.275 2.462 6.443 8.327 8.554 9.013.359.119.735.182 1.114.186.648-.009 1.28-.209 1.814-.577.353-.227.789-.574 1.292-.977 1.159-.93 2.749-2.205 4.261-2.737 2.847-1 7.213-.68 10.723-.423 1.618.118 3.016.219 4.137.194 5.346-.128 23.018-4.578 26.039-7.307.348-.318.618-.712.789-1.152a3.09 3.09 0 0 0 .199-1.382zm-28.607-24.472a.89.89 0 0 1 .258-.354c.114-.094.25-.159.396-.187a.9.9 0 0 1 .437.024.89.89 0 0 1 .373.229c.112.14.167.318.154.497a.83.83 0 0 1-.668.781c-.135.031-.275.026-.408-.013a.8.8 0 0 1-.546-.57.79.79 0 0 1 .004-.407zm-4.175.781a.89.89 0 0 1 .258-.354.9.9 0 0 1 .396-.187c.145-.029.296-.02.437.024a.89.89 0 0 1 .373.229c.112.141.167.318.154.497a.85.85 0 0 1-.202.505.84.84 0 0 1-.468.276.8.8 0 0 1-.754-.227.8.8 0 0 1-.193-.763zm.791 5.978c-.01.186-.081.364-.202.505s-.286.238-.468.276c-.135.031-.275.027-.408-.013a.8.8 0 0 1-.54-.979.89.89 0 0 1 .258-.353c.114-.094.25-.158.395-.186s.295-.02.436.024a.9.9 0 0 1 .372.23c.113.14.168.317.156.496zm-2.447-9.896a.89.89 0 0 1 .259-.353.9.9 0 0 1 .396-.187c.145-.028.296-.02.437.025a.89.89 0 0 1 .372.23.71.71 0 0 1 .154.496.84.84 0 0 1-.2.505c-.121.141-.285.239-.467.276-.135.031-.276.027-.408-.013a.8.8 0 0 1-.546-.571.8.8 0 0 1 .004-.408zm-3.185 5.477a.9.9 0 0 1 .259-.353c.114-.094.25-.158.396-.186a.9.9 0 0 1 .809.254c.113.14.168.318.156.497a.84.84 0 0 1-.67.781c-.135.031-.276.026-.408-.014a.8.8 0 0 1-.541-.979zm35.115 22.983c-2.399 2.167-19.461 6.599-24.576 6.722-1.01.026-2.421-.078-3.915-.189-3.719-.272-8.35-.609-11.643.547-1.874.66-3.638 2.074-4.926 3.104-.453.363-.846.678-1.101.842a.99.99 0 0 1-1.003.138c-1.61-.519-6.84-5.832-6.997-7.105a.93.93 0 0 1 .022-.375.94.94 0 0 1 .167-.338c1.88-2.937 10.096-8.667 13.18-10.126 2.771-1.312 6.732-2.849 11.761-2.849a25.57 25.57 0 0 1 5.117.524c4.019.816 9.473 2.361 10.809 3.061.829.438 1.247 1.167 1.119 1.953A1.66 1.66 0 0 1 80 146.824c-1.174.181-2.666-.033-4.245-.26-2.698-.39-5.76-.829-8.337.608a1.13 1.13 0 0 0-.49.545c-.098.231-.117.489-.054.732s.205.458.404.612a1.14 1.14 0 0 0 .694.237c.194 0 .383-.051.552-.146 1.907-1.063 4.45-.698 6.909-.343 1.733.25 3.371.484 4.865.262h.01a32.79 32.79 0 0 0 4.157-.904c3.132-.814 6.682-1.734 8.493-.517a1.66 1.66 0 0 1 .723 1.197c.017.126.004.255-.039.375a.8.8 0 0 1-.206.315z" fill="#fff"/></svg>